<svg width="43" height="43" viewBox="0 0 43 43" fill="none" xmlns="http://www.w3.org/2000/svg">
<path fill-rule="evenodd" clip-rule="evenodd" d="M18.8124 6.71875C18.8124 6.36237 18.6708 6.02058 18.4188 5.76858C18.1668 5.51657 17.825 5.375 17.4687 5.375H9.40616C9.04977 5.375 8.70798 5.51657 8.45598 5.76858C8.20398 6.02058 8.06241 6.36237 8.06241 6.71875C8.06241 7.07513 8.20398 7.41692 8.45598 7.66892C8.70798 7.92093 9.04977 8.0625 9.40616 8.0625H10.4543L6.69178 26.875C5.0267 26.883 3.42389 27.5089 2.19413 28.6316C0.964373 29.7542 0.195282 31.2934 0.0359831 32.9509C-0.123316 34.6084 0.338527 36.2659 1.33196 37.6022C2.3254 38.9385 3.77964 39.8583 5.41273 40.1832C7.04581 40.5082 8.74139 40.2152 10.1707 39.3609C11.6 38.5067 12.6612 37.1522 13.1485 35.56C13.6358 33.9678 13.5145 32.2514 12.8082 30.7435C12.1018 29.2357 10.8607 28.0438 9.32553 27.3991L9.83347 24.8782L16.3641 34.357C16.4875 34.5359 16.6525 34.6821 16.8449 34.7832C17.0373 34.8843 17.2513 34.9373 17.4687 34.9375H29.6968C30.0298 36.5689 30.9567 38.0185 32.2977 39.0053C33.6388 39.9921 35.2985 40.4458 36.9551 40.2785C38.6117 40.1111 40.1471 39.3346 41.2637 38.0995C42.3803 36.8645 42.9985 35.2588 42.9985 33.5938C42.9985 31.9287 42.3803 30.323 41.2637 29.088C40.1471 27.8529 38.6117 27.0764 36.9551 26.909C35.2985 26.7417 33.6388 27.1954 32.2977 28.1822C30.9567 29.169 30.0298 30.6186 29.6968 32.25H18.1755L10.5672 21.2044L13.1955 8.0625H17.4687C17.825 8.0625 18.1668 7.92093 18.4188 7.66892C18.6708 7.41692 18.8124 7.07513 18.8124 6.71875ZM32.4783 32.25C32.7953 31.3534 33.4191 30.5978 34.2393 30.1166C35.0595 29.6355 36.0235 29.4597 36.9607 29.6206C37.898 29.7814 38.7482 30.2683 39.3612 30.9954C39.9741 31.7225 40.3103 32.6428 40.3103 33.5938C40.3103 34.5447 39.9741 35.465 39.3612 36.1921C38.7482 36.9192 37.898 37.4061 36.9607 37.5669C36.0235 37.7278 35.0595 37.552 34.2393 37.0709C33.4191 36.5897 32.7953 35.8341 32.4783 34.9375H36.2812C36.6375 34.9375 36.9793 34.7959 37.2313 34.5439C37.4833 34.2919 37.6249 33.9501 37.6249 33.5938C37.6249 33.2374 37.4833 32.8956 37.2313 32.6436C36.9793 32.3916 36.6375 32.25 36.2812 32.25H32.4783ZM8.78266 30.1296C9.54353 30.5799 10.1351 31.268 10.4662 32.0878C10.7973 32.9076 10.8496 33.8136 10.6148 34.666C10.3801 35.5184 9.87147 36.2699 9.16737 36.8047C8.46326 37.3394 7.6028 37.6277 6.71866 37.625C5.69852 37.626 4.71596 37.2401 3.96906 36.5453C3.22216 35.8504 2.76647 34.8982 2.69386 33.8807C2.62125 32.8631 2.93712 31.8559 3.57779 31.062C4.21846 30.2682 5.13628 29.7467 6.14622 29.6028L5.40178 33.3304C5.34525 33.6741 5.42444 34.0264 5.62265 34.3129C5.82085 34.5994 6.12258 34.7977 6.46419 34.8661C6.80581 34.9344 7.1606 34.8674 7.45375 34.6791C7.7469 34.4909 7.95549 34.1962 8.03553 33.8571L8.78266 30.1296Z" fill="black"/>
</svg>
