<svg width="223" height="193" viewBox="0 0 223 193" fill="none" xmlns="http://www.w3.org/2000/svg">
<path d="M93.2227 35.1479C86.3046 38.6491 80.4114 41.3817 80.1552 41.1255C79.899 40.8693 80.326 38.9052 81.0947 36.685C81.8634 34.4648 82.2904 32.5008 82.1196 32.2446C81.4363 31.6468 74.0912 35.3187 68.6251 38.9906C61.3653 43.9434 48.3833 56.667 37.3656 69.5614C32.3265 75.3681 26.6041 81.1749 24.6397 82.4558C22.5899 83.7367 17.5508 85.8715 13.4512 87.2378C9.35163 88.5187 5.84988 89.7142 5.76448 89.7996C5.59366 89.885 6.87478 94.4108 8.66836 99.876L11.9139 109.696L20.7109 112.856C25.5792 114.564 29.7642 115.759 30.0205 115.503C30.2767 115.247 30.7037 113.197 31.0454 110.892L31.6432 106.793L38.7321 106.537L45.7356 106.28V109.525C45.7356 111.319 44.9669 114.393 44.1128 116.357L42.4901 119.943L51.5434 121.993C62.9881 124.725 65.8066 125.152 74.6036 126.006C78.447 126.348 81.8634 126.86 82.1196 127.116C82.3758 127.287 83.5715 133.521 84.7672 140.779L86.9879 154.015L84.2548 156.406C82.8028 157.773 81.2655 160.164 80.8385 161.615L79.9844 164.433H98.7742H117.479V143.512V122.591H119.443C121.322 122.591 148.397 117.211 151.557 116.186C153.094 115.759 154.033 117.211 159.414 127.8L165.478 140.011L163.941 145.049C162.66 149.319 161.976 150.343 159.67 151.283C156.596 152.564 152.496 157.004 152.496 159.139C152.496 159.907 152.24 161.444 151.984 162.469L151.471 164.433H170.176H188.88L192.211 150.77L195.542 137.193L194.005 130.703L192.467 124.213L195.115 119.175C198.36 113.112 200.837 102.267 201.777 90.1412L202.46 81.1749L206.133 87.4086L209.805 93.5569L208.439 105.256C207.328 115.247 206.816 117.211 205.022 119.346C203.827 120.712 202.887 122.334 202.887 122.932C202.887 124.64 208.866 136.253 209.72 136.253C210.147 136.253 211.94 133.35 213.649 129.764L216.894 123.359L215.271 120.37C213.734 117.552 213.734 116.955 215.1 104.658L216.552 91.849L211.342 83.1389C208.439 78.2715 205.364 73.6603 204.424 72.8917C203.485 72.0378 202.46 69.3906 201.948 66.4019C199.471 52.6536 188.538 43.7727 168.98 39.5884C162.147 38.0513 157.621 37.7097 144.211 37.7097H127.728V34.8918C127.728 33.3547 127.386 32.0738 127.044 32.0738C126.703 32.0738 122.347 33.4401 117.479 35.0626C112.61 36.685 108.255 38.0513 107.913 38.0513C107.571 38.0513 107.23 35.9165 107.23 33.3547C107.23 30.7929 106.973 28.6581 106.632 28.7435C106.205 28.7435 100.226 31.6468 93.2227 35.1479ZM103.728 152.478C103.813 153.759 103.13 155.04 102.105 155.723C100.397 156.748 100.397 156.577 100.482 145.049L100.568 133.265L102.105 141.804C103.045 146.501 103.728 151.283 103.728 152.478Z" fill="#975728"/>
<path d="M43.1191 120.19L29.7914 115.486L28.7461 105.819L39.1992 102.161L48.3457 107.387L43.1191 120.19Z" fill="#975728" stroke="#975728"/>
</svg>
