<svg width="427" height="370" viewBox="0 0 427 370" fill="none" xmlns="http://www.w3.org/2000/svg">
<path d="M178.363 67.2607C165.127 73.9606 153.851 79.1898 153.361 78.6995C152.871 78.2093 153.688 74.4508 155.159 70.2021C156.629 65.9534 157.447 62.1949 157.12 61.7046C155.812 60.5608 141.759 67.5875 131.301 74.6142C117.411 84.0921 92.5719 108.441 71.4917 133.116C61.8504 144.228 50.9018 155.34 47.1433 157.791C43.2214 160.242 33.5801 164.327 25.7363 166.942C17.8925 169.393 11.1926 171.681 11.0292 171.844C10.7024 172.008 13.1536 180.669 16.5852 191.127L22.7949 209.919L39.6263 215.966C48.9408 219.234 56.948 221.522 57.4383 221.032C57.9285 220.541 58.7456 216.619 59.3992 212.207L60.5431 204.363L74.1063 203.873L87.5061 203.383V209.593C87.5061 213.024 86.0354 218.907 84.4013 222.666L81.2964 229.529L98.6181 233.451C120.515 238.68 125.908 239.497 142.739 241.131C150.093 241.785 156.629 242.765 157.12 243.256C157.61 243.582 159.898 255.511 162.185 269.402L166.434 294.73L161.205 299.306C158.427 301.921 155.486 306.496 154.669 309.274L153.034 314.667H188.985H224.772V274.631V234.595H228.531C232.126 234.595 283.928 224.3 289.974 222.339C292.915 221.522 294.713 224.3 305.008 244.563L316.61 267.931L313.669 277.572C311.217 285.743 309.91 287.704 305.498 289.501C299.615 291.952 291.771 300.45 291.771 304.535C291.771 306.006 291.281 308.947 290.791 310.908L289.81 314.667H325.598H361.385L367.758 288.521L374.131 262.538L371.19 250.119L368.248 237.7L373.314 228.058C379.524 216.456 384.263 195.703 386.06 172.498L387.367 155.34L394.394 167.269L401.421 179.035L398.806 201.422C396.682 220.541 395.701 224.3 392.27 228.385C389.982 231 388.184 234.104 388.184 235.248C388.184 238.517 399.623 260.741 401.257 260.741C402.075 260.741 405.506 255.185 408.774 248.321L414.984 236.065L411.879 230.346C408.938 224.953 408.938 223.81 411.552 200.278L414.33 175.766L404.362 159.098C398.806 149.784 392.923 140.96 391.126 139.489C389.328 137.855 387.367 132.789 386.387 127.07C381.648 100.76 360.731 83.7653 323.31 75.7581C310.237 72.8167 301.576 72.163 275.92 72.163H244.382V66.7704C244.382 63.829 243.728 61.3778 243.075 61.3778C242.421 61.3778 234.087 63.9924 224.772 67.0973C215.458 70.2021 207.124 72.8167 206.47 72.8167C205.817 72.8167 205.163 68.7314 205.163 63.829C205.163 58.9266 204.673 54.8413 204.019 55.0048C203.202 55.0048 191.763 60.5608 178.363 67.2607ZM198.463 291.789C198.626 294.24 197.319 296.691 195.358 297.999C192.09 299.96 192.09 299.633 192.253 277.572L192.417 255.021L195.358 271.362C197.156 280.35 198.463 289.501 198.463 291.789Z" fill="#975728"/>
<path d="M37.6654 261.762L56.6621 221.93L60.9516 204.772H88.5274L81.7867 229.284L37.6654 261.762Z" fill="#D9D9D9" stroke="black"/>
</svg>
