<svg width="64" height="64" viewBox="0 0 64 64" fill="none" xmlns="http://www.w3.org/2000/svg">
<rect x="8.25179" y="7.91666" width="47.5136" height="47.9375" rx="13" fill="#FF0000"/>
<path d="M19.505 62L2 44.7917V20.2083L19.505 3H44.5122L62.0172 20.2083V44.7917L44.5122 62H19.505ZM22.5059 46.4306L32.0086 37.0889L41.5114 46.4306L46.1794 41.8417L36.6766 32.5L46.1794 23.1583L41.5114 18.5694L32.0086 27.9111L22.5059 18.5694L17.8379 23.1583L27.3406 32.5L17.8379 41.8417L22.5059 46.4306ZM22.3392 55.4444H41.6781L55.3487 42.0056V22.9944L41.6781 9.55556H22.3392L8.66858 22.9944V42.0056L22.3392 55.4444Z" fill="black"/>
</svg>
