<svg width="64" height="64" viewBox="0 0 64 64" fill="none" xmlns="http://www.w3.org/2000/svg">
<path d="M36 14.6667C38.9067 14.6667 41.3333 12.2133 41.3333 9.33333C41.3333 7.91885 40.7714 6.56229 39.7712 5.5621C38.771 4.5619 37.4145 4 36 4C33.04 4 30.6667 6.34667 30.6667 9.33333C30.6667 12.2133 33.04 14.6667 36 14.6667ZM26.3733 51.68L29.04 40L34.6667 45.3333V61.3333H40V41.3333L34.3733 36L36 28C37.8261 30.095 40.0802 31.7742 42.6102 32.9242C45.1403 34.0742 47.8875 34.6684 50.6667 34.6667V29.3333C45.5733 29.3333 41.3333 26.6667 39.1733 22.88L36.5067 18.6667C35.44 17.0133 33.84 16 32 16C31.1733 16 30.6667 16.2133 29.84 16.2133L16 22.08V34.6667H21.3333V25.5467L26.1067 23.68L21.84 45.3333L8.77333 42.6667L7.70667 48L26.3733 51.68Z" fill="#FF0000"/>
</svg>
